# xmcd
# 
# Track frame offsets:
#     150
#     17550
#     40962
#     75962
#     96200
#     110487
#     129700
#     150637
#     167287
# 
# Disc length: 2423
# 
# Revision: 2
# Processed by: cddbd v1.5.2PL0 Copyright (c) Steve Scherf et al.
# Submitted via: fre:ac v1.0.27
# 
DISCID=5e097509
DTITLE=Peter Green - In The Skies
DYEAR=1979
DGENRE=Guitar Rock
TTITLE0=In The Skies
TTITLE1=Slabo Day
TTITLE2=A Fool No More
TTITLE3=Tribal Dance
TTITLE4=Seven Stars
TTITLE5=Funky Chunk
TTITLE6=Just For You
TTITLE7=Proud Pinto
TTITLE8=Apostle
EXTD=YEAR: 1979
EXTT0=
EXTT1=
EXTT2=
EXTT3=
EXTT4=
EXTT5=
EXTT6=
EXTT7=
EXTT8=
PLAYORDER=
